<svg xmlns="http://www.w3.org/2000/svg" viewBox="0 0 346.6 400"><defs><linearGradient id="d" x1="-200.6" x2="-201.7" y1="173.8" y2="101" gradientTransform="skewY(30)scale(-.866 1)" gradientUnits="userSpaceOnUse"><stop offset="0" stop-color="#3E5F34"/><stop offset="1" stop-color="#407E2F"/></linearGradient><linearGradient id="c" x1="-200.6" x2="-201.7" y1="173.8" y2="101" gradientTransform="skewY(30)scale(-.866 1)" gradientUnits="userSpaceOnUse"><stop offset="0" stop-color="#3E5F34"/><stop offset="1" stop-color="#407E2F"/></linearGradient><linearGradient id="b" x1="-200.6" x2="-201.7" y1="173.8" y2="101" gradientTransform="skewY(30)scale(-.866 1)" gradientUnits="userSpaceOnUse"><stop offset="0" stop-color="#3E5F34"/><stop offset="1" stop-color="#407E2F"/></linearGradient><linearGradient id="a" x1="-200.6" x2="-201.7" y1="173.8" y2="101" gradientTransform="skewY(30)scale(-.866 1)" gradientUnits="userSpaceOnUse"><stop offset="0" stop-color="#3E5F34"/><stop offset="1" stop-color="#407E2F"/></linearGradient><linearGradient id="e" x1="-200.6" x2="-201.7" y1="175.6" y2="101.1" gradientTransform="skewY(30)scale(-.866 1)" gradientUnits="userSpaceOnUse"><stop offset="0" stop-color="#3E5F34"/><stop offset="1" stop-color="#407E2F"/></linearGradient><linearGradient id="f" x1="-200.6" x2="-201.7" y1="173.8" y2="101" gradientTransform="skewY(30)scale(-.866 1)" gradientUnits="userSpaceOnUse"><stop offset="0" stop-color="#3E5F34"/><stop offset="1" stop-color="#407E2F"/></linearGradient><linearGradient id="g" x1="-200.6" x2="-201.7" y1="173.8" y2="101" gradientTransform="skewY(30)scale(-.866 1)" gradientUnits="userSpaceOnUse"><stop offset="0" stop-color="#3E5F34"/><stop offset="1" stop-color="#407E2F"/></linearGradient><linearGradient id="h" x1="-200.6" x2="-201.7" y1="173.8" y2="101" gradientTransform="skewY(30)scale(-.866 1)" gradientUnits="userSpaceOnUse"><stop offset="0" stop-color="#3E5F34"/><stop offset="1" stop-color="#407E2F"/></linearGradient><linearGradient id="i" x1="-200.6" x2="-201.7" y1="173.8" y2="101" gradientTransform="skewY(30)scale(-.866 1)" gradientUnits="userSpaceOnUse"><stop offset="0" stop-color="#3E5F34"/><stop offset="1" stop-color="#407E2F"/></linearGradient><linearGradient id="j" x1="-200.6" x2="-201.7" y1="173.8" y2="101" gradientTransform="skewY(30)scale(-.866 1)" gradientUnits="userSpaceOnUse"><stop offset="0" stop-color="#3E5F34"/><stop offset="1" stop-color="#407E2F"/></linearGradient><linearGradient id="k" x1="-399.8" x2="-373.5" y1="375.5" y2="317.5" gradientTransform="skewY(-30)scale(-.866 1)" gradientUnits="userSpaceOnUse"><stop offset="0" stop-color="#3E5F34"/><stop offset="1" stop-color="#407E2F"/></linearGradient></defs><path fill="#43912e" d="m173.2 0 173 99.9v.2l-173 99.9L0 100Z"/><path fill="#63a451" d="m0 100 21.6-12.5 21.9 12.6-21.7 12.5-5.3-3z"/><path fill="#387926" d="M173.2 0 195 12.6l-21.8 12.6-22-12.5Zm-130 100 22 12.6-21.7 12.5-21.9-12.7Z"/><path fill="#63a451" d="M238.2 37.5 260 50.1l-22 12.6-21.9-12.6ZM129.7 25.1l21.8-12.6 21.9 12.6-21.9 12.6Z"/><path fill="#387926" d="m216.5 50 21.7 12.6-21.8 12.6-22-12.6Z"/><path fill="#63a451" d="m259.8 75 21.8 12.6-21.8 12.6-22-12.6Z"/><path fill="#387926" d="m281.4 87.5 21.9 12.6-21.9 12.6-21.9-12.6Z"/><path fill="#63a451" d="m129.8 50 22 12.6-22 12.6L108 62.6Zm151.6 62.5 21.7 12.5-22 12.6-21.6-12.5Z"/><path fill="#387926" d="m238.2 112.5 21.8 12.6-21.9 12.6-21.9-12.6ZM64.6 62.7l22-12.7 21.7 12.6-21.8 12.6Z"/><path fill="#63a451" d="m129.8 124.9 22 12.7-22 12.6-21.8-12.6Zm65 12.6 21.9 12.6-21.9 12.6-21.9-12.6ZM86.6 75l21.8 12.6-21.8 12.6-22-12.6Z"/><path fill="#387926" d="m86.6 124.9 21.8 12.7-21.6 12.5-21.9-12.7Zm108.2 37.6 21.7 12.4-22 12.7-21.6-12.5Z"/><path fill="#387926" d="m151.5 162.5 21.9 12.6-21.7 12.5-5.3-3-16.6-9.7Z"/><path d="m173.1-.1 173.1 100v.2L173 200 0 100v-.2Zm0 .3L.3 100 173 199.8l173-100Z"/><path fill="#533600" d="M173.2 199.7v200L0 299.7v-200Z"/><path fill="#43912e" d="M21.6 112.2v25.3L0 124.9V99.7Z"/><path fill="url(#a)" d="M21.6 112.2v25.3L0 124.9V99.7l8.5 4.9Z"/><path fill="#43912e" d="M21.6 137.2v25.3L0 149.9v-25.2Z"/><path fill="url(#b)" d="M21.6 137.2v25.3L0 149.9v-25.2Z"/><path d="m21.6 137.2.2.1v25.3l-.4-.3v-25.2Z"/><path fill="#345627" d="M21.6 162.2v25.3L0 174.9v-25.2Z"/><path d="m0 174.7 21.4 12.4v-25l.2.1.2.1v25.5l-.2-.1L0 175.2Zm21.6 12.8.2.1-.2-.2Z"/><path fill="#366928" d="M173.2 199.7V225l-22-12.7v-25.2Z"/><path fill="url(#c)" d="M173.2 224.7V250l-22-12.7v-25.2Z"/><path d="M173.2 249.7v.5l-22-12.6v-.5Z"/><path fill="url(#d)" d="M151.5 187.2v25.3l-21.9-12.8v-25Z"/><path fill="#5f8755" d="M151.5 212.2v25.3l-21.9-12.8v-25Z"/><path fill="url(#e)" d="M151.5 237.2v25.3l-21.9-12.8v-25Z"/><path d="m151.5 262.5.2.1v.2l-.2-.1v-.1L129.6 250v-.1h-.2v-25.5l.2.2.3.1v25l21.4 12.3v-25l.2.1.2.1v25.3l-.2-.2Z"/><path fill="url(#f)" d="m127.5 173.3 2.4 1.4V200l-22-12.7v-25.2z"/><path fill="url(#g)" d="M129.9 199.7V225l-22-12.7v-25.2Z"/><path d="m107.9 212.5-.1-.1v-25.5l.2.2.2.1v25l21.7 12.5v.5l-22-12.6Z"/><path fill="#366928" d="M108.2 162.2v25.3l-21.9-12.8v-25Z"/><path d="M108.2 187.2v.5l-21.9-12.6v-.5Z"/><path fill="#43912e" d="M86.6 149.7V175l-22-12.7v-25.2Z"/><path fill="url(#h)" d="m84.2 148.3 2.4 1.4V175l-22-12.7v-25.2z"/><path d="M86.6 174.7v.5l-22-12.6v-.5Z"/><path fill="#619553" d="M64.9 137.2v25.3L43 149.7v-25Z"/><path fill="#43912e" d="M64.9 162.2v25.3L43 174.7v-25Z"/><path fill="url(#i)" d="M64.9 162.2v25.3L43 174.7v-25Z"/><path d="m64.9 187.5.2.1v.2l-.2-.1L43 175v-.1h-.2v-25.5l.5.3v25L64.7 187v-25l.2.1.2.1v25.3l-.2-.2Z"/><path fill="#43912e" d="M43.2 124.7V150l-21.8-12.7v-25.2Z"/><path fill="url(#j)" d="M43.2 124.7V150l-21.8-12.7v-25.2Z"/><path d="M43.2 149.7v.5l-21.8-12.6v-.5Z"/><path d="M0 226.4V99.8l173.2 100v199.9L-.1 299.7ZM173 200 .2 100.2v199.3L173 399.3Z"/><path fill="#5c3b00" d="M346.2 99.7v200L173 399.7v-200Z"/><path fill="#417f30" d="M194.6 187.2v25.3L173 224.9v-25.2Z"/><path fill="url(#k)" d="M194.6 187.2v25.3L173 224.9v-25.2z"/><path fill="#417f30" d="M194.6 212.2v25.3L173 249.9v-25.2Z"/><path fill="#34562a" d="M194.6 237.2v25.3L173 274.8v-25.2Z"/><path d="M194.6 237.2h.2v25.4l-.2.1-21.6 12.4v-.5l21.4-12.3v-25Z"/><path fill="#43912e" d="M346.2 99.7V125l-22 12.6v-25.2Z"/><path fill="#43912e" d="M346.2 124.7V150l-22 12.6v-25.3Z"/><path fill="#43912e" d="M346.2 149.7V175l-22 12.6v-25.3Z"/><path fill="#63a451" d="M346.2 174.7V200l-22 12.6v-25.3Z"/><path d="m346.2 200.2-22 12.6h.1l-.2.2v-25.5l.2-.2.2-.1v25l21.7-12.5Z"/><path fill="#63a451" d="m302.6 124.9 21.9-12.7v25.3l-21.9 12.6z"/><path fill="#43912e" d="M324.5 137.2v25.3l-21.9 12.6v-25.4Z"/><path fill="#387926" d="M324.5 162.2v25.3l-21.9 12.6v-25.4Z"/><path d="m302.9 199.6 21.7-12.4v.5l-22 12.6-.2.2V175l.2-.2.3-.1Z"/><path fill="#387926" d="m281 137.3 21.8-12.5V150L281 162.6z"/><path fill="#63a451" d="M302.8 149.7V175L281 187.6v-25.3Z"/><path d="M302.8 174.7v.5L281 187.8v-.5Z"/><path fill="#43912e" d="M281.2 137.2v25.3l-21.9 12.6v-25.2z"/><path fill="#43912e" d="M281.2 162.2v25.3l-21.9 12.6v-25.4Z"/><path d="M281.2 187.2v.5l-21.9 12.6v-.5Z"/><path fill="#43912e" d="M259.6 149.7V175l-22 12.6v-25.2Z"/><path fill="#387926" d="M259.6 174.7V200l-22 12.6v-25.3Z"/><path d="m237.9 212.2 21.6-12.5v.5l-21.8 12.6-.2.2v-25.5l.2-.2.2-.1Z"/><path fill="#63a451" d="m216 174.9 21.9-12.7v25.3L216 200.1z"/><path d="M237.9 187.2v.5L216 200.3v-.5Z"/><path fill="#417f30" d="m194.4 187.3 21.8-12.5V200l-21.8 12.6z"/><path fill="#63a451" d="M216.2 199.7V225l-21.8 12.6v-25.3Z"/><path d="m216.2 199.7.3-.1v25.5h-.2v.1l-21.9 12.6v-.5l21.6-12.5v-25Zm0 25.3.2-.1h-.2Z"/><path d="M346.2 299.7 173 399.7v-200l173.2-100Zm-.3-199.6L173.2 200v199.3L346 299.5Z"/><path fill="#3e2800" d="m54.1 193.6 65 37.5v75l-65-37.5Z"/><path fill="#5c3b00" d="m54.1 193.6 64.8 37.4.1.1-64.9 37.4Z"/><path d="M119.2 231.1v75L54 268.5v-75ZM54.3 194v74.3l64.6 37.4v-74.4Z"/><path fill="#3e2800" d="M292 193.6v75l-65 37.5v-75Z"/><path fill="#533600" d="M292 193.6v75l-65-37.5Z"/><path d="M292 268.5 227.2 306v-75l65-37.5Zm-.2-74.6-64.4 37.3v74.3l64.4-37.2Z"/><path fill="#3e2800" d="m108.2 100 65-37.5 64.9 37.5-65 37.5Z"/><path fill="#fff" d="M173.2 137.4V62.5l64.9 37.5Z"/><path fill="#533600" d="m194.9 125-21.7 12.4v-25.1l21.7 12.4Z"/><path fill="#533600" d="m216.5 112.5-21.6 12.4-.3-.2v-25l21.9 12.6Z"/><path fill="#418230" d="m194.9 125-21.7-12.5V87.3l21.7 12.4Z"/><path fill="#376f27" d="m216.2 87.3 21.9 12.7-21.6 12.5-.3-.2Z"/><path fill="#418230" d="m216.5 112.5-21.9-12.8V74.9l21.9 12.6Z"/><path fill="#619753" d="m194.9 100-21.7-12.5v-25L194.9 75Z"/><path d="m173.4 137.3-.2.2-.2-.2V62.6l.2-.1.2.1z"/><path fill="#fff" d="m108.2 100 65-37.5v75h-.1Z"/><path fill="#407432" d="m108.2 100 21.9-12.6v24.9l-.3.2Z"/><path fill="#619753" d="M151.3 125 130 112.4v-.3l21.8-12.6v25.1Z"/><path fill="#407432" d="M129.9 112.5v-25l1.9-1.1 19.9-11.5v24.8Z"/><path fill="#533600" d="M173 137.5 151.6 125v-.3l21.7-12.5v25.2Z"/><path fill="#533600" d="M151.5 125V99.7l21.7-12.5v25.2Z"/><path fill="#376f27" d="M151.5 100V75l21.7-12.5v25Z"/><path d="m108.1 100 65-37.5 65 37.5-65 37.6Zm.5 0 64.6 37.3 64.5-37.3-64.5-37.3Z"/></svg>