<svg width="16" height="16" viewBox="0 0 16 16" fill="none" xmlns="http://www.w3.org/2000/svg">
<path d="M12 2.5H4C3.17157 2.5 2.5 3.17157 2.5 4V12C2.5 12.8284 3.17157 13.5 4 13.5H12C12.8284 13.5 13.5 12.8284 13.5 12V4C13.5 3.17157 12.8284 2.5 12 2.5Z" fill="#2A551F" stroke="#63A451"/>
<mask id="path-2-inside-1_52_150" fill="white">
<path d="M7.99936 4.5L10.9968 6.25056L7.99748 8.00222L5 6.25166L7.99936 4.5Z"/>
</mask>
<path d="M7.99936 4.5L10.9968 6.25056L7.99748 8.00222L5 6.25166L7.99936 4.5Z" fill="#63A451"/>
<path d="M7.99936 4.5L8.86288 3.99569L7.99936 3.49138L7.13584 3.99569L7.99936 4.5ZM10.9968 6.25056L11.4286 6.50272L12.2921 5.99841L11.8604 5.74626L10.9968 6.25056ZM7.99748 8.00222L7.56572 8.25438L7.99748 8.50653L8.42925 8.25438L7.99748 8.00222ZM5 6.25166L4.13648 5.74735L3.70472 5.99951L4.56824 6.50381L5 6.25166ZM7.99936 4.5L7.13584 5.00431L10.1333 6.75487L10.9968 6.25056L11.8604 5.74626L8.86288 3.99569L7.99936 4.5ZM10.9968 6.25056L10.5651 5.99841L7.56572 7.75007L7.99748 8.00222L8.42925 8.25438L11.4286 6.50272L10.9968 6.25056ZM7.99748 8.00222L8.42925 7.75007L5.43176 5.99951L5 6.25166L4.56824 6.50381L7.56572 8.25438L7.99748 8.00222ZM5 6.25166L5.86353 6.75597L8.86288 5.00431L7.99936 4.5L7.13584 3.99569L4.13648 5.74735L5 6.25166Z" fill="#63A451" mask="url(#path-2-inside-1_52_150)"/>
<mask id="path-4-inside-2_52_150" fill="white">
<path d="M11 6.24658V9.74771L8.00064 11.4994V7.99824L11 6.24658Z"/>
</mask>
<path d="M11 6.24658V9.74771L8.00064 11.4994V7.99824L11 6.24658Z" fill="#63A451"/>
<path d="M11 6.24658L11.8635 5.74227V5.24227L11 5.74658V6.24658ZM11 9.74771V10.7477L11.8635 10.2434V9.2434L11 9.74771ZM8.00064 11.4994L7.56888 11.7515V12.7515L8.00064 12.4994V11.4994ZM8.00064 7.99824V7.49824L7.56888 7.7504V8.2504L8.00064 7.99824ZM11 6.24658L10.1365 6.75089V10.252L11 9.74771L11.8635 9.2434V5.74227L11 6.24658ZM11 9.74771V8.74771L8.00064 10.4994V11.4994V12.4994L11 10.7477V9.74771ZM8.00064 11.4994L8.43241 11.2472V7.74609L8.00064 7.99824L7.56888 8.2504V11.7515L8.00064 11.4994ZM8.00064 7.99824V8.49824L11 6.74658V6.24658V5.74658L8.00064 7.49824V7.99824Z" fill="#63A451" mask="url(#path-4-inside-2_52_150)"/>
<mask id="path-6-inside-3_52_150" fill="white">
<path d="M5 9.74854V6.24741L7.99936 7.99907V11.5002L5 9.74854Z"/>
</mask>
<path d="M5 9.74854V6.24741L7.99936 7.99907V11.5002L5 9.74854Z" fill="#63A451"/>
<path d="M5 9.74854L4.13648 9.24423V10.2442L5 10.7485V9.74854ZM5 6.24741V5.74741L4.13648 5.2431V5.7431L5 6.24741ZM7.99936 7.99907L8.43112 8.25122V7.75122L7.99936 7.49907V7.99907ZM7.99936 11.5002V12.5002L8.43112 12.7523V11.7523L7.99936 11.5002ZM5 9.74854L5.86352 10.2528V6.75171L5 6.24741L4.13648 5.7431V9.24423L5 9.74854ZM5 6.24741V6.74741L7.99936 8.49907V7.99907V7.49907L5 5.74741V6.24741ZM7.99936 7.99907L7.56759 7.74691V11.248L7.99936 11.5002L8.43112 11.7523V8.25122L7.99936 7.99907ZM7.99936 11.5002V10.5002L5 8.74854V9.74854V10.7485L7.99936 12.5002V11.5002Z" fill="#63A451" mask="url(#path-6-inside-3_52_150)"/>
</svg>
